<svg xmlns="http://www.w3.org/2000/svg" viewBox="-178.3 -166.8 1000 800"><path fill="#494368" d="M79.9 286.1c4 0 7.3 1.4 10.1 4.2 2.8 2.8 4.2 6.2 4.2 10.1V350H43.5c-4 0-7.3-1.4-10.1-4.2a13.8 13.8 0 0 1-4.2-10.1v-23.6h53.1v-11.7c0-.7-.2-1.2-.7-1.7-.5-.5-1-.7-1.7-.7H29.2v-11.9h50.7zm2.4 52V324H41.1v11.7c0 .7.2 1.2.7 1.7.5.5 1 .7 1.7.7h38.8zm114.7-52h12.7l-24 63.9H176l-21.5-47.5-20.3 47.5-.2-.1.1.1h-9.6l-25.1-63.9H112l17.3 42.4 18.4-42.4h13.6l19.5 42.4 16.2-42.4zm67.2 0c4 0 7.3 1.4 10.1 4.2 2.8 2.8 4.2 6.2 4.2 10.1V324h-53.1v11.7c0 .7.2 1.2.7 1.7.5.5 1 .7 1.7.7h50.7V350h-50.7c-4 0-7.3-1.4-10.1-4.2a13.8 13.8 0 0 1-4.2-10.1v-35.3c0-4 1.4-7.3 4.2-10.1 2.8-2.8 6.2-4.2 10.1-4.2h36.4zm-38.8 26h41.2v-11.7c0-.7-.2-1.2-.7-1.7-.5-.5-1-.7-1.7-.7h-36.4c-.7 0-1.2.2-1.7.7-.5.5-.7 1-.7 1.7v11.7zm129-11.6v2.4h-11.9v-2.4c0-.7-.2-1.2-.7-1.7-.5-.5-1-.7-1.7-.7h-36.4c-.7 0-1.2.2-1.7.7-.5.5-.7 1-.7 1.7v9.3c0 .7.2 1.2.7 1.7.5.5 1 .7 1.7.7h36.4c4 0 7.3 1.4 10.1 4.2 2.8 2.8 4.2 6.2 4.2 10.1v9.3c0 4-1.4 7.3-4.2 10.1a13.8 13.8 0 0 1-10.1 4.2h-36.4c-4 0-7.3-1.4-10.1-4.2a13.8 13.8 0 0 1-4.2-10.1v-2.4h11.9v2.4c0 .7.2 1.2.7 1.7.5.5 1 .7 1.7.7h36.4c.7 0 1.2-.2 1.7-.7.5-.5.7-1 .7-1.7v-9.3c0-.7-.2-1.2-.7-1.7-.5-.5-1-.7-1.7-.7h-36.4c-4 0-7.3-1.4-10.1-4.2a13.8 13.8 0 0 1-4.2-10.1v-9.3c0-4 1.4-7.3 4.2-10.1 2.8-2.8 6.2-4.2 10.1-4.2h36.4c4 0 7.3 1.4 10.1 4.2 2.8 2.7 4.2 6.1 4.2 10.1zm25.2-14.4H416c4 0 7.3 1.4 10.1 4.2 2.8 2.8 4.2 6.2 4.2 10.1v35.3c0 4-1.4 7.3-4.2 10.1A13.8 13.8 0 0 1 416 350h-36.4c-4 0-7.3-1.4-10.1-4.2a13.8 13.8 0 0 1-4.2-10.1v-35.3c0-4 1.4-7.3 4.2-10.1 2.8-2.8 6.2-4.2 10.1-4.2zM416 298h-36.4c-.7 0-1.2.2-1.7.7-.5.5-.7 1-.7 1.7v35.3c0 .7.2 1.2.7 1.7.5.5 1 .7 1.7.7H416c.7 0 1.2-.2 1.7-.7.5-.5.7-1 .7-1.7v-35.3c0-.7-.2-1.2-.7-1.7-.5-.4-1-.7-1.7-.7zm107.5-11.9c4 0 7.3 1.4 10.1 4.2 2.8 2.8 4.2 6.2 4.2 10.1V350H526v-49.6c0-.7-.2-1.2-.7-1.7-.5-.5-1.1-.7-1.8-.7h-25.2c-.7 0-1.2.2-1.7.7-.5.5-.7 1-.7 1.7V350H484v-49.6c0-.7-.2-1.2-.7-1.7-.5-.5-1-.7-1.7-.7h-25.3c-.7 0-1.2.2-1.7.7-.5.5-.7 1-.7 1.7V350H442v-63.9h81.5zm76.5 0c4 0 7.3 1.4 10.1 4.2 2.8 2.8 4.2 6.2 4.2 10.1V324h-53.1v11.7c0 .7.2 1.2.7 1.7.5.5 1 .7 1.7.7h50.7V350h-50.7c-4 0-7.3-1.4-10.1-4.2a13.8 13.8 0 0 1-4.2-10.1v-35.3c0-4 1.4-7.3 4.2-10.1 2.8-2.8 6.2-4.2 10.1-4.2H600zm-38.8 26h41.2v-11.7c0-.7-.2-1.2-.7-1.7-.5-.5-1-.7-1.7-.7h-36.4c-.7 0-1.2.2-1.7.7-.5.5-.7 1-.7 1.7v11.7z"/><path fill="#699D68" d="M614.2 54l-150-137.6-21.1 23L568.1 54H75.4l125-114.7-21.1-23L29.3 54h-.1v90.7c0 41 39.5 74.4 88 74.4h92.5c48.5 0 88-33.4 88-74.4V85.2h48v59.6c0 41 39.5 74.4 88 74.4h92.5c48.5 0 88-33.4 88-74.4V54z"/><g fill="#494368"><path d="M204.9 392.1v45h-10.8v-45c0-1.2-1-2.2-2.2-2.2h-33c-1.2 0-2.2 1-2.2 2.2v45h-10.8v-58h46a13 13 0 0 1 13 13zm55.3-13a13 13 0 0 1 13 13v32a13 13 0 0 1-13 13h-33a13 13 0 0 1-13-13v-32a13 13 0 0 1 13-13h33zm-33 10.8c-1.2 0-2.2 1-2.2 2.2v32c0 1.2 1 2.2 2.2 2.2h33c1.2 0 2.2-1 2.2-2.2v-32c0-1.2-1-2.2-2.2-2.2h-33zm112.4-29.8v77h-46a13 13 0 0 1-13-13v-32a13 13 0 0 1 13-13h35.2v-19h10.8zm-13 66.2c1.2 0 2.2-1 2.2-2.2v-32c0-1.2-1-2.2-2.2-2.2h-33c-1.2 0-2.2 1-2.2 2.2v32c0 1.2 1 2.2 2.2 2.2h33zm81-34.2v21.4h-48.2v10.6c0 1.2 1 2.2 2.2 2.2h46v10.8h-46a13 13 0 0 1-13-13v-32a13 13 0 0 1 13-13h33a13 13 0 0 1 13 13zm-10.8 10.6v-10.6c0-1.2-1-2.2-2.2-2.2h-33c-1.2 0-2.2 1-2.2 2.2v10.6h37.4zm32.1 34.4h-10.8v-10.8h10.8v10.8z"/><path d="M453.2 415.1v32a13 13 0 0 1-13 13h-24.8v-10.8h24.8c1.2 0 2.2-1 2.2-2.2v-67.8h10.8v35.8zm0-55v10.8h-10.8v-10.8h10.8zm68.6 34.2H511v-2.2c0-1.2-1-2.2-2.2-2.2h-33c-1.2 0-2.2 1-2.2 2.2v8.4c0 1.2 1 2.2 2.2 2.2h33a13 13 0 0 1 13 13v8.4a13 13 0 0 1-13 13h-33a13 13 0 0 1-13-13v-2.2h10.8v2.2c0 1.2 1 2.2 2.2 2.2h33c1.2 0 2.2-1 2.2-2.2v-8.4c0-1.2-1-2.2-2.2-2.2h-33a13 13 0 0 1-13-13v-8.4a13 13 0 0 1 13-13h33a13 13 0 0 1 13 13v2.2z"/></g><path fill="#FFF" fill-rule="evenodd" d="M197.2 155.9c0 1-.5 1.8-1.3 2.3l-30.5 17.6c-.8.5-1.8.5-2.7 0l-30.5-17.6a2.8 2.8 0 0 1-1.3-2.3v-35.2c0-1 .5-1.8 1.3-2.3l30.5-17.6c.8-.5 1.9-.5 2.7 0l30.5 17.6c.8.5 1.3 1.4 1.3 2.3v35.2zm316.7 0c0 1-.5 1.8-1.3 2.3L482 175.7c-.8.5-1.8.5-2.7 0l-30.5-17.6a2.8 2.8 0 0 1-1.3-2.3v-35.2c0-1 .5-1.8 1.3-2.3l30.5-17.6c.8-.5 1.9-.5 2.7 0l30.5 17.6c.8.5 1.3 1.4 1.3 2.3v35.3z" clip-rule="evenodd"/><path fill="none" d="M-178.3 528.1h1000v52.5h-1000z" clip-rule="evenodd"/><path d="M-157.5 547.2c0 7.3 3.3 10.7 8.6 10.7 5 0 7.7-3.1 7.7-6.6h3.3c0 4.2-3.4 9.6-11.1 9.6-7.3 0-11.8-4.8-11.8-13.7V543c0-8.9 4.6-13.9 11.8-13.9 7.4 0 11.1 5.4 11.1 10.2h-3.3c0-3.4-2.7-7.1-7.8-7.1s-8.5 3.7-8.5 10.9v4.1zm43.6 13.2h-3.3v-3.2h-.1c-.8 1.9-3.1 3.6-6.9 3.6-4.9 0-8.3-2.8-8.3-8.1v-15.8h3.3v14.8c0 4.4 2.6 6 5.9 6 3.7 0 6.1-2.4 6.1-6.3v-14.6h3.3v23.6zm7.1-23.6h3.3v3h.1c.7-1.5 2.5-3.4 6-3.4l1.4.1v3.1l-1.8-.1c-4.2 0-5.6 2.7-5.6 6.2v14.6h-3.3v-23.5zm21.6 23.9c-4.6 0-7.7-2.8-7.7-7.1 0-4.1 2.8-6.7 8.2-6.7h6.4v-2.5c0-3.3-1.9-5.1-5.3-5.1-3.2 0-5 1.6-5.3 4.1H-92c.3-4.1 3.1-6.9 8.5-6.9 4.9 0 8.4 2.7 8.4 7.5v16.4h-3.2v-3.1h-.1c-1 1.9-3.2 3.4-6.8 3.4zm6.9-8.2v-2.9h-6.3c-3.4 0-4.9 1.6-4.9 3.9 0 2.9 2.4 4.3 5.1 4.3 3.5.1 6.1-2.1 6.1-5.3zm11.6-21.6h3.3v5.9h4.8v2.8h-4.8v14.5c0 2.9.9 3.6 3.9 3.6h1.1v2.7l-1.9.2c-5.4 0-6.4-2.1-6.4-6.6v-14.3h-3.2v-2.8h3.2v-6zm16-2c1.3 0 2.3 1 2.3 2.2 0 1.3-1 2.3-2.3 2.3-1.2 0-2.2-1-2.2-2.3 0-1.2 1-2.2 2.2-2.2zm-1.7 7.9h3.3v23.5h-3.3v-23.5zm10.7 0h3.3v3.2h.1c.9-1.6 3.1-3.6 6.9-3.6 4.9 0 8.5 3.1 8.5 8.8v15.1h-3.3v-14.6c0-4-2.4-6.2-6-6.2-4.3 0-6.2 3.1-6.2 6.5v14.4h-3.3v-23.6zm41 23.4v-4h-.1c-.9 2-3.4 3.9-6.8 3.9-5.5 0-9.4-3.8-9.4-10.8v-2.2c0-6.9 4-10.7 9.4-10.7a8 8 0 0 1 7 3.8h.1v-3.4h3.2v23.3c0 5.8-4.4 8.9-9.7 8.9-5.9 0-8.8-2.9-9.4-6.8h3.4c.4 2 2.4 3.9 5.9 3.9 3.8.2 6.4-2.1 6.4-5.9zm-13.1-12.7v1.6c0 5.1 2.5 8.1 6.6 8.1s6.4-3.2 6.4-8.1v-1.6c0-4.9-2.5-8.1-6.4-8.1-4.1 0-6.6 2.8-6.6 8.1zm34.2-16.6h3.3v5.9h4.8v2.8h-4.8v14.5c0 2.9.9 3.6 3.9 3.6h1.1v2.7l-1.9.2c-5.4 0-6.4-2.1-6.4-6.6v-14.3h-3.2v-2.8h3.2v-6zm14.2-2.8h3.3v12h.1c.9-1.6 3.1-3.6 7-3.6 4.9 0 8.5 3.1 8.5 8.8v15.1h-3.3v-14.6c0-4-2.4-6.2-6-6.2-4.3 0-6.2 3.1-6.2 6.5v14.4h-3.3v-32.4zm24.6 21.7v-2.7c0-6.2 3.4-10.6 9.5-10.6 6 0 9.5 4.4 9.5 10.9v2.1H62.5v.5c0 4.8 2.4 8 6.5 8 3 0 4.8-1.5 5.6-3.8h3.3c-.9 3.8-3.9 6.6-9 6.6-6.1-.1-9.7-4.4-9.7-11zm15.7-3.2c0-4.2-2.5-7.3-6.2-7.3-3.8 0-6.2 3.1-6.2 7.2v.1h12.4zm21.9 10.1l-.1 3.7h-3.1v-32.3h3.3v12.1h.1a8.3 8.3 0 0 1 7-3.7c5.5 0 9.3 3.9 9.3 10.8v2.6c0 6.8-3.8 10.9-9.4 10.9a8 8 0 0 1-7.1-4.1zm13.3-7.1v-2.1c0-5.3-2.6-8.1-6.3-8.1-4.3 0-6.9 3-6.9 8.1v2.1c0 5.2 2.6 8.2 6.9 8.2 3.6 0 6.3-2.9 6.3-8.2zm8.5.2v-2.7c0-6.2 3.4-10.6 9.5-10.6 6 0 9.5 4.4 9.5 10.9v2.1h-15.7v.5c0 4.8 2.4 8 6.5 8 3 0 4.8-1.5 5.6-3.8h3.3c-.9 3.8-3.9 6.6-9 6.6-6.1-.1-9.7-4.4-9.7-11zm15.7-3.2c0-4.2-2.5-7.3-6.2-7.3-3.8 0-6.2 3.1-6.2 7.2v.1h12.4zm16.9-10.1c5.5 0 8.2 3.3 8.2 6.9h-3.1c-.1-1.8-1.3-4.1-5.2-4.1-2.9 0-5.1 1.3-5.1 3.8 0 2.7 3 3.4 5.8 3.9 4.4.8 8.2 1.9 8.2 6.5s-3.8 7.2-9.1 7.2c-5.1 0-8.6-2.6-8.6-6.6h3.2c.3 2.2 2.2 3.8 5.6 3.8 3.8 0 5.6-1.8 5.6-4 0-2.8-2.6-3.3-6-4-4.4-1-8-2.2-8-6.4 0-4.9 4-7 8.5-7zm15.9-5.6h3.3v5.9h4.8v2.8h-4.8v14.5c0 2.9.9 3.6 3.9 3.6h1.1v2.7l-1.9.2c-5.4 0-6.4-2.1-6.4-6.6v-14.3h-3.2v-2.8h3.2v-6zm23.2 29.5v-30.6h3.3l16.1 24.9h.1v-24.9h3.2v30.6h-3.3l-16.1-24.9h-.1v24.9h-3.2zm49.1-13v2.3c0 6.3-3.5 11-9.9 11s-10-4.7-10-11v-2.3c0-6.3 3.5-11 10-11 6.4.1 9.9 4.7 9.9 11zm-16.5.2v2c0 5.1 2.4 8.2 6.6 8.2 4.2 0 6.6-3.1 6.6-8.2v-2c0-5.1-2.4-8.2-6.6-8.2-4.2 0-6.6 3.1-6.6 8.2zm38-7.4l.1-12.1h3.3v32.3h-3.1v-3.7h-.1a7.8 7.8 0 0 1-7.1 4c-6.1 0-9.4-4.4-9.4-10.9v-2.4c0-6.4 3.6-10.9 9.4-10.9a7.4 7.4 0 0 1 6.9 3.7zm-13 7.3v2.1c0 5.4 2.7 8.1 6.4 8.1 4.2 0 6.7-3 6.7-8.1v-2.2c0-4.9-2.6-8.1-6.7-8.1-3.6.1-6.4 2.7-6.4 8.2zm22.7 2.3v-2.7c0-6.2 3.4-10.6 9.5-10.6 6 0 9.5 4.4 9.5 10.9v2.1h-15.7v.5c0 4.8 2.4 8 6.5 8 3 0 4.8-1.5 5.6-3.8h3.3c-.9 3.8-3.9 6.6-9 6.6-6.1-.1-9.7-4.4-9.7-11zm15.7-3.2c0-4.2-2.5-7.3-6.2-7.3-3.8 0-6.2 3.1-6.2 7.2v.1h12.4zm11.1 9.5c1.3 0 2.4 1.1 2.4 2.4 0 1.3-1.1 2.4-2.4 2.4s-2.4-1.1-2.4-2.4c0-1.4 1.1-2.4 2.4-2.4zm12.3 5.1c0 5.3-2.2 7.5-6 7.5l-2.1-.2v-2.7l1.5.1c2.5 0 3.3-1.5 3.3-4.7v-24.3h3.3v24.3zm-1.7-32.3c1.3 0 2.3 1 2.3 2.2 0 1.3-1 2.3-2.3 2.3-1.2 0-2.2-1-2.2-2.3 0-1.2 1-2.2 2.2-2.2zm16.6 7.6c5.5 0 8.2 3.3 8.2 6.9h-3.1c-.1-1.8-1.3-4.1-5.2-4.1-2.9 0-5.1 1.3-5.1 3.8 0 2.7 3 3.4 5.8 3.9 4.4.8 8.2 1.9 8.2 6.5s-3.8 7.2-9.1 7.2c-5.1 0-8.6-2.6-8.6-6.6h3.2c.3 2.2 2.2 3.8 5.6 3.8 3.8 0 5.6-1.8 5.6-4 0-2.8-2.6-3.3-6-4-4.4-1-8-2.2-8-6.4 0-4.9 4-7 8.5-7zm23.8.3h3.3v2.9h.2c.8-1.6 2.8-3.3 6-3.3 3.7 0 5.9 1.5 6.9 3.9h.1c.9-2 3.3-3.9 7.2-3.9 4.9 0 7.9 3 7.9 7.9v16h-3.3V545c0-3.2-1.8-5.5-5.3-5.5-3.6 0-5.5 2.5-5.5 5.8v15h-3.3v-15c0-3.8-2-5.8-5.4-5.8-3.1 0-5.5 2.2-5.5 5.8v15h-3.3v-23.5zm57.5 10.6v2.3c0 6.3-3.5 11-9.9 11s-10-4.7-10-11v-2.3c0-6.3 3.5-11 10-11 6.3.1 9.9 4.7 9.9 11zm-16.6.2v2c0 5.1 2.4 8.2 6.6 8.2 4.2 0 6.6-3.1 6.6-8.2v-2c0-5.1-2.4-8.2-6.6-8.2-4.2 0-6.6 3.1-6.6 8.2zm38.1-7.4l.1-12.1h3.3v32.3h-3.1v-3.7h-.1a7.8 7.8 0 0 1-7.1 4c-6.1 0-9.4-4.4-9.4-10.9v-2.4c0-6.4 3.6-10.9 9.4-10.9a7.7 7.7 0 0 1 6.9 3.7zm-13 7.3v2.1c0 5.4 2.7 8.1 6.4 8.1 4.2 0 6.7-3 6.7-8.1v-2.2c0-4.9-2.6-8.1-6.7-8.1-3.7.1-6.4 2.7-6.4 8.2zm41.9 12.9H453v-3.2h-.1c-.8 1.9-3.1 3.6-6.9 3.6-4.9 0-8.3-2.8-8.3-8.1v-15.8h3.3v14.8c0 4.4 2.6 6 5.9 6 3.7 0 6.1-2.4 6.1-6.3v-14.6h3.3v23.6zm7.3-32.3h3.3v32.3h-3.3v-32.3zm9.6 21.7v-2.7c0-6.2 3.4-10.6 9.5-10.6 6 0 9.5 4.4 9.5 10.9v2.1h-15.7v.5c0 4.8 2.4 8 6.5 8 3 0 4.8-1.5 5.6-3.8h3.3c-.9 3.8-3.9 6.6-9 6.6-6.1-.1-9.7-4.4-9.7-11zm15.7-3.2c0-4.2-2.5-7.3-6.2-7.3-3.8 0-6.2 3.1-6.2 7.2v.1h12.4zm16.9-10.1c5.5 0 8.2 3.3 8.2 6.9h-3.1c-.1-1.8-1.3-4.1-5.2-4.1-2.9 0-5.1 1.3-5.1 3.8 0 2.7 3 3.4 5.8 3.9 4.4.8 8.2 1.9 8.2 6.5s-3.8 7.2-9.1 7.2c-5.1 0-8.6-2.6-8.6-6.6h3.2c.3 2.2 2.2 3.8 5.6 3.8 3.8 0 5.6-1.8 5.6-4 0-2.8-2.6-3.3-6-4-4.4-1-8-2.2-8-6.4 0-4.9 4.1-7 8.5-7zm30.1 24.2c-4.6 0-7.7-2.8-7.7-7.1 0-4.1 2.8-6.7 8.2-6.7h6.4v-2.5c0-3.3-1.9-5.1-5.3-5.1-3.2 0-5 1.6-5.3 4.1h-3.1c.3-4.1 3.1-6.9 8.5-6.9 4.9 0 8.4 2.7 8.4 7.5v16.4h-3.2v-3.1h-.1c-1 1.9-3.2 3.4-6.8 3.4zm6.9-8.2v-2.9h-6.3c-3.4 0-4.9 1.6-4.9 3.9 0 2.9 2.4 4.3 5.1 4.3 3.5.1 6.1-2.1 6.1-5.3zm10.3-15.7h3.3v3.2h.1c.9-1.6 3.1-3.6 6.9-3.6 4.9 0 8.5 3.1 8.5 8.8v15.1h-3.3v-14.6c0-4-2.4-6.2-6-6.2-4.3 0-6.2 3.1-6.2 6.5v14.4h-3.3v-23.6zm40.8 3.4l.1-12.1h3.3v32.3h-3.1v-3.7h-.1a7.8 7.8 0 0 1-7.1 4c-6.1 0-9.4-4.4-9.4-10.9v-2.4c0-6.4 3.6-10.9 9.4-10.9a7.4 7.4 0 0 1 6.9 3.7zm-12.9 7.3v2.1c0 5.4 2.7 8.1 6.4 8.1 4.2 0 6.7-3 6.7-8.1v-2.2c0-4.9-2.6-8.1-6.7-8.1-3.7.1-6.4 2.7-6.4 8.2zm32.8-10.7h3.3v3h.1c.7-1.5 2.5-3.4 6-3.4l1.4.1v3.1l-1.8-.1c-4.2 0-5.6 2.7-5.6 6.2v14.6h-3.3v-23.5zm14.3 13v-2.7c0-6.2 3.4-10.6 9.5-10.6 6 0 9.5 4.4 9.5 10.9v2.1h-15.7v.5c0 4.8 2.4 8 6.5 8 3 0 4.8-1.5 5.6-3.8h3.3c-.9 3.8-3.9 6.6-9 6.6-6.1-.1-9.7-4.4-9.7-11zm15.7-3.2c0-4.2-2.5-7.3-6.2-7.3-3.8 0-6.2 3.1-6.2 7.2v.1h12.4zm16.9-10.1c5.5 0 8.2 3.3 8.2 6.9h-3.1c-.1-1.8-1.3-4.1-5.2-4.1-2.9 0-5.1 1.3-5.1 3.8 0 2.7 3 3.4 5.8 3.9 4.4.8 8.2 1.9 8.2 6.5s-3.8 7.2-9.1 7.2c-5.1 0-8.6-2.6-8.6-6.6h3.2c.3 2.2 2.2 3.8 5.6 3.8 3.8 0 5.6-1.8 5.6-4 0-2.8-2.6-3.3-6-4-4.4-1-8-2.2-8-6.4 0-4.9 4-7 8.5-7zm33.5 10.9v2.3c0 6.3-3.5 11-9.9 11s-10-4.7-10-11v-2.3c0-6.3 3.5-11 10-11 6.3.1 9.9 4.7 9.9 11zm-16.6.2v2c0 5.1 2.4 8.2 6.6 8.2 4.2 0 6.6-3.1 6.6-8.2v-2c0-5.1-2.4-8.2-6.6-8.2-4.2 0-6.6 3.1-6.6 8.2zm41 12.8h-3.3v-3.2h-.1c-.8 1.9-3.1 3.6-6.9 3.6-4.9 0-8.3-2.8-8.3-8.1v-15.8h3.3v14.8c0 4.4 2.6 6 5.9 6 3.7 0 6.1-2.4 6.1-6.3v-14.6h3.3v23.6zm7.2-23.6h3.3v3h.1c.7-1.5 2.5-3.4 6-3.4l1.4.1v3.1l-1.8-.1c-4.2 0-5.6 2.7-5.6 6.2v14.6h-3.3v-23.5zm14.3 10.4c0-6.4 3.6-10.8 9.6-10.8 5.4 0 8.6 3.6 8.8 7.1h-3.3a5.4 5.4 0 0 0-5.3-4.1c-4.1 0-6.5 3-6.5 8v2.4c0 4.8 2.6 8 6.6 8 3.2 0 5-1.7 5.4-3.7h3.3c-.8 3.8-3.5 6.7-9 6.7-6.1 0-9.6-4.7-9.6-11v-2.6zm23.2 2.6v-2.7c0-6.2 3.4-10.6 9.5-10.6 6 0 9.5 4.4 9.5 10.9v2.1h-15.7v.5c0 4.8 2.4 8 6.5 8 3 0 4.8-1.5 5.6-3.8h3.3c-.9 3.8-3.9 6.6-9 6.6-6-.1-9.7-4.4-9.7-11zm15.8-3.2c0-4.2-2.5-7.3-6.2-7.3-3.8 0-6.2 3.1-6.2 7.2v.1h12.4zm16.9-10.1c5.5 0 8.2 3.3 8.2 6.9h-3.1c-.1-1.8-1.3-4.1-5.2-4.1-2.9 0-5.1 1.3-5.1 3.8 0 2.7 3 3.4 5.8 3.9 4.4.8 8.2 1.9 8.2 6.5s-3.8 7.2-9.1 7.2c-5.1 0-8.6-2.6-8.6-6.6h3.2c.3 2.2 2.2 3.8 5.6 3.8 3.8 0 5.6-1.8 5.6-4 0-2.8-2.6-3.3-6-4-4.4-1-8-2.2-8-6.4 0-4.9 4-7 8.5-7z" opacity=".6"/></svg>