<svg xmlns="http://www.w3.org/2000/svg" fill="#54be96" viewBox="0 0 304.59 62.33"><g><g><path d="M.25 24.34a1.16 1.16 0 0 1-.13-.91A31.39 31.39 0 0 1 10.57 6.91 30.31 30.31 0 0 1 39.9 1.72a1.17 1.17 0 0 1 .67.62 1.2 1.2 0 0 1 0 .91l-1.5 4a1.14 1.14 0 0 1-1.45.7 23.82 23.82 0 0 0-23 4.11A24.77 24.77 0 0 0 6.5 25a1.16 1.16 0 0 1-1.12.87h-.26L1 24.88a1.15 1.15 0 0 1-.73-.54"/><path d="M60 34.28a1.16 1.16 0 0 0-.79-.44L55 33.4a1.16 1.16 0 0 0-1.26 1A24.58 24.58 0 0 1 46 49.3a23.83 23.83 0 0 1-24.79 4.76 1.14 1.14 0 0 0-1.48.65l-1.64 4a1.15 1.15 0 0 0 0 .91 1.11 1.11 0 0 0 .65.64 30 30 0 0 0 11.05 2.09 30.32 30.32 0 0 0 20.62-8.09 31.36 31.36 0 0 0 9.79-19.08 1.16 1.16 0 0 0-.24-.88"/><path d="M36.75 40.1v-4.31a1.17 1.17 0 0 0-1.16-1.18H1.16A1.17 1.17 0 0 0 0 35.79v4.31a1.17 1.17 0 0 0 1.16 1.18h34.43a1.17 1.17 0 0 0 1.16-1.18"/><path d="M23.5 20.14v4.31a1.17 1.17 0 0 0 1.15 1.18h34.43a1.17 1.17 0 0 0 1.16-1.18v-4.31A1.17 1.17 0 0 0 59.08 19H24.65a1.17 1.17 0 0 0-1.15 1.18"/><path d="M48.67 5.85a3.53 3.53 0 1 0 3.47 3.53 3.51 3.51 0 0 0-3.47-3.53"/><path d="M10.35 48.53a3.53 3.53 0 1 0 3.47 3.53 3.51 3.51 0 0 0-3.47-3.53"/><path d="M129.43 28.12H115.2a7 7 0 0 1 7.07-6.22c4.08 0 6.81 2.38 7.16 6.22m-7.22-12.3c-6.91 0-14.06 5.88-14.06 15.73a16.18 16.18 0 0 0 4.43 11.71 14.45 14.45 0 0 0 10.34 4.19 13.39 13.39 0 0 0 13.08-9.1.92.92 0 0 0 0-.71.87.87 0 0 0-.53-.48l-4.06-1.43a.93.93 0 0 0-1.17.56 7.12 7.12 0 0 1-7.28 5.08 7.82 7.82 0 0 1-7.96-7.59h20.34a.92.92 0 0 0 .92-.84 14.65 14.65 0 0 0 .08-1.51c0-9.63-5.41-15.61-14.12-15.61"/><path d="M162.82 30.93c0 5.23-3.06 8.75-7.6 8.75-4.76 0-7.72-3.35-7.72-8.75s3-8.76 7.72-8.76c4.54 0 7.6 3.52 7.6 8.76m5.55-14.2h-4.79a1 1 0 0 0-.94.95v1.78c-1.79-2.15-4.62-3.27-8.25-3.27a13.19 13.19 0 0 0-9.95 4.31 15.47 15.47 0 0 0-3.78 10.43c0 8.5 5.77 14.68 13.73 14.68a10.51 10.51 0 0 0 8.19-3.51v2.33c0 6-2.6 8.87-8.19 8.87a7.08 7.08 0 0 1-7.2-6.25.94.94 0 0 0-1.14-.78l-4.68 1.1a1 1 0 0 0-.72 1.06c.93 6.47 6.58 11 13.74 11 5.15 0 9.07-1.59 11.65-4.73a16.19 16.19 0 0 0 3.26-10.43V17.68a1 1 0 0 0-.93-.95"/><path d="M208.27 15.82a10.83 10.83 0 0 0-9.54 4.89 9.57 9.57 0 0 0-8.63-4.89 10.77 10.77 0 0 0-8.1 3.51v-1.71a1 1 0 0 0-.94-.95h-4.61a1 1 0 0 0-.93.95V46a1 1 0 0 0 .93.95h4.79a1 1 0 0 0 .94-.95V28.81c0-4.08 2.46-6.82 6.11-6.82 4.8 0 5.51 3.82 5.51 6.09V46a1 1 0 0 0 .94.95h4.85a1 1 0 0 0 .94-.95V28.75c0-4 2.49-6.76 6-6.76 4.8 0 5.51 3.82 5.51 6.09V46a1 1 0 0 0 .94.95h4.79a1 1 0 0 0 .94-.95V27.48c0-8-5.25-11.66-10.45-11.66"/><path d="M230.31 28.12a7 7 0 0 1 7.07-6.22c4.08 0 6.81 2.38 7.16 6.22zm7-12.3c-6.91 0-14.06 5.88-14.06 15.73a16.14 16.14 0 0 0 4.43 11.71A14.45 14.45 0 0 0 238 47.45a13.39 13.39 0 0 0 13.09-9.1.92.92 0 0 0-.05-.71.87.87 0 0 0-.53-.48l-4.06-1.43a.94.94 0 0 0-1.17.56 7.13 7.13 0 0 1-7.28 5.08 7.82 7.82 0 0 1-7.93-7.59h20.34a.93.93 0 0 0 .92-.84 14.65 14.65 0 0 0 .08-1.51c0-9.63-5.41-15.61-14.12-15.61"/><path d="M271.76 15.82a10.41 10.41 0 0 0-8.26 3.78v-2a1 1 0 0 0-.93-.95h-4.73a1 1 0 0 0-.94.95V46a1 1 0 0 0 .94.95h4.84a1 1 0 0 0 .94-.95V29.54a8.78 8.78 0 0 1 1.56-5.31 5.56 5.56 0 0 1 4.55-2.12c4 0 6.11 2.28 6.11 6.76V46a1 1 0 0 0 .94.95h4.85a1 1 0 0 0 .93-.95V27.9a13.23 13.23 0 0 0-2.68-8.55 10.12 10.12 0 0 0-8.12-3.53"/><path d="M303.66 23a.94.94 0 0 0 .93-.95v-4.36a1 1 0 0 0-.93-1h-5.26V8.48a1 1 0 0 0-.94-1h-4.37a1 1 0 0 0-.94 1v4.34c0 3.41-2.41 3.91-3.84 3.91h-1.18a1 1 0 0 0-.94 1v4.38a1 1 0 0 0 .94.95h4.55v15.38c0 5.47 3.27 8.86 8.54 8.86a13 13 0 0 0 3.7-.48.94.94 0 0 0 .67-.91V41.8a1 1 0 0 0-.32-.72.93.93 0 0 0-.76-.21 12.82 12.82 0 0 1-1.68.14c-2.47 0-3.43-1-3.43-3.42V23z"/><path d="M104.5 38.12c0-4.54-3.41-7.8-9.37-9l-5.34-1c-2.89-.55-3.5-2.07-3.5-3.25 0-1.78 1.92-3.62 5.12-3.62 4.59 0 6 2.64 6.41 4.21a.71.71 0 0 0 .38.44.91.91 0 0 0 .67 0l4.85-1.6a.64.64 0 0 0 .47-.78 10.23 10.23 0 0 0-3.37-4.89c-2.34-1.87-5.5-2.82-9.41-2.82-6.53 0-12.06 4.36-12.06 9.51 0 4.23 3.26 7.48 8.49 8.47l5.61 1.09c2.53.51 4 1.78 4 3.5S95.8 42 92.17 42c-3.9 0-6.61-1.79-7.24-4.79a.69.69 0 0 0-.37-.45.83.83 0 0 0-.41-.1.84.84 0 0 0-.27 0l-5 1.56a.67.67 0 0 0-.5.74c.68 3.12 4.35 8.41 13.7 8.41 8.06 0 12.4-4.81 12.4-9.33"/></g></g></svg>
